<?xml version="1.0" encoding="utf-8"?>
<!-- Generator: Adobe Illustrator 26.3.1, SVG Export Plug-In . SVG Version: 6.00 Build 0)  -->
<svg version="1.1" id="Layer_1" xmlns="http://www.w3.org/2000/svg" xmlns:xlink="http://www.w3.org/1999/xlink" x="0px" y="0px"
	 viewBox="0 0 755.2 764.6" style="enable-background:new 0 0 755.2 764.6;" xml:space="preserve">
<style type="text/css">
	.st0{fill:#172D67;}
	.st1{fill:#22DDD2;}
</style>
<path class="st0" d="M711.5,351.4c-39.8-42.9-107.3-100.5-176.4-130.9c-31.8-70.6-86.5-135.4-131.2-176.6c-15.8-14.5-40-14.5-55.7,0
	C305.5,83,251.5,144.5,216,222.3c-48.4,22.7-97.5,58-130.4,87.8c-14.8,13.3-29,27.3-42.3,42c-14.4,15.8-14.2,40,0.4,55.7
	C83,450.2,149.3,507,217.9,537.7c34.7,74.3,92,143.2,148.6,190.3c5.6,4.6,13.6,4.6,19.2,0c42.3-34.9,111.6-109.5,147.5-188.5
	c67.8-30.7,131.6-80.8,178.5-132.2C726.2,391.5,726.1,367.2,711.5,351.4z M629.2,410.5c-40.6,35.6-91,68.9-138.1,86.2l0,0
	c-51.3,18.9-106.5,24.7-160.6,16.9l1,1.7c21.9,38.5,65.4,59.3,109.1,52.1c5.1-0.8,10.2-1.8,15.2-2.8c-19.9,31.3-43.1,60.4-69.2,86.9
	c-5.8,5.9-15.3,5.9-21.2,0.1c0,0-0.1-0.1-0.1-0.1c-41.7-42.3-84.5-102.3-104.9-156.1l0,0c-19.6-51.2-26.1-106.5-18.8-160.9l-0.9,0.5
	c-38.8,22.1-59.5,66.1-51.8,110.1c0,0.3,0.1,0.6,0.1,0.9c0.6,3.3-1.6,6.5-5,7.1c-1.6,0.3-3.2-0.1-4.5-1
	c-18.7-12.6-36.5-26.4-53.5-41.3c-17.1-15-18.8-40.9-3.8-58c1.1-1.3,2.3-2.5,3.6-3.6c79.5-70.5,178.4-120.4,297.4-103.6l-0.3-0.6
	c-21.7-39-65.5-60.2-109.5-52.8c-1.9,0.3-3.9,0.7-5.8,1c-3.3,0.6-6.6-1.6-7.2-4.9c-0.3-1.6,0-3.2,0.9-4.5
	c13.3-20,27.9-39.2,43.8-57.2c16.4-18.6,45.5-18.9,61.8-0.2c35.2,40.2,68.3,89.9,85.7,136.8l0,0c19.5,52.3,25.4,108.8,17.1,164
	l1.6-0.9c38.7-21.5,59.9-64.8,53.1-108.5c-0.3-2.1-0.7-4.1-1-6.2c-0.6-3.3,1.6-6.5,5-7.1c1.6-0.3,3.2,0,4.5,0.9
	c19.8,13.2,38.6,27.6,56.5,43.3c17.1,15,18.9,41,3.9,58.1C631.8,408.1,630.5,409.3,629.2,410.5z"/>
<path class="st1" d="M629.1,348.6c-17.8-15.7-36.7-30.2-56.5-43.3c-2.8-1.9-6.7-1.1-8.5,1.8c-0.9,1.3-1.2,2.9-0.9,4.5
	c0.4,2.1,0.7,4.1,1,6.2c6.8,43.7-14.3,87-53,108.5l-1.6,0.9c8.3-55.2,2.5-111.7-17.1-164l0,0c-17.5-46.9-50.5-96.6-85.7-136.8
	c-16.4-18.7-45.4-18.4-61.8,0.2c-15.9,18-30.5,37.2-43.8,57.2c-1.9,2.8-1.1,6.7,1.8,8.5c1.3,0.9,2.9,1.2,4.5,0.9
	c1.9-0.4,3.9-0.7,5.8-1c44-7.4,87.9,13.8,109.5,52.8l0.3,0.6c-119-16.8-217.9,33-297.4,103.6c-17,15.1-18.5,41.1-3.4,58
	c1.1,1.3,2.3,2.5,3.6,3.6c16.9,14.9,34.8,28.7,53.5,41.3c2.8,1.9,6.6,1.1,8.5-1.7c0.9-1.3,1.2-2.9,1-4.5c0-0.3-0.1-0.6-0.1-0.9
	c-7.7-43.9,13-88,51.8-110.1l0.9-0.5c-7.3,54.4-0.8,109.7,18.8,160.9l0,0c20.4,53.9,63.2,113.8,104.9,156.1
	c5.8,5.9,15.3,5.9,21.2,0.1c0,0,0.1-0.1,0.1-0.1c26-26.4,49.2-55.6,69.2-86.9c-5.1,1.1-10.1,2-15.2,2.8
	c-43.7,7.2-87.2-13.6-109.1-52.1l-1-1.7c54.1,7.8,109.3,2,160.6-16.9l0,0c47.1-17.2,97.5-50.6,138.1-86.2c17.1-15,18.7-41,3.7-58.1
	C631.7,351.1,630.4,349.8,629.1,348.6z M452.8,294.3c10,0,18.1,8.1,18.1,18.1c0,10-8.1,18.1-18.1,18.1c-9.6,0-17.5-7.5-18.1-17.1
	c-0.5-10,7.1-18.5,17.1-19.1C452.1,294.3,452.4,294.3,452.8,294.3z M376.2,486.9c-56.3-0.8-102.3-46.7-103.2-103.1
	c-0.8-57.8,45.4-105.3,103.2-106.2c14.2-0.2,28.3,2.5,41.4,7.9c3.8,1.6,5.7,5.9,4.1,9.8c-0.5,1.2-1.3,2.2-2.3,3
	c-16.4,12.7-19.4,36.4-6.7,52.8c12.7,16.4,36.4,19.4,52.8,6.7c0.7-0.6,1.5-1.2,2.2-1.8c3.2-2.7,7.9-2.3,10.6,0.9
	c0.8,0.9,1.3,2.1,1.6,3.3c12.1,56.6-23.9,112.2-80.5,124.3C391.8,486.2,384,487,376.2,486.9z"/>
<path class="st0" d="M470.9,312.4c0,10-8.1,18.1-18.1,18.1c-10,0-18.1-8.1-18.1-18.1c0-10,8.1-18.1,18.1-18.1c0,0,0,0,0,0
	C462.8,294.3,470.9,302.4,470.9,312.4C470.9,312.4,470.9,312.4,470.9,312.4z"/>
<path class="st0" d="M482.2,382.3c0,57.8-46.8,104.6-104.6,104.6c-0.5,0-1,0-1.4,0c-56.3-0.8-102.3-46.7-103.2-103.1
	c-0.8-57.8,45.4-105.3,103.2-106.2c14.2-0.2,28.3,2.5,41.4,7.9c3.8,1.6,5.7,5.9,4.1,9.8c-0.5,1.2-1.3,2.2-2.3,3
	c-16.4,12.7-19.4,36.4-6.7,52.8c12.7,16.4,36.4,19.4,52.8,6.7c0.7-0.6,1.5-1.2,2.2-1.8c3.2-2.7,7.9-2.3,10.6,0.9
	c0.8,0.9,1.3,2.1,1.6,3.3C481.4,367.5,482.2,374.9,482.2,382.3z"/>
</svg>
