<svg xmlns="http://www.w3.org/2000/svg" viewBox="0 0 1100 1100"><defs><style>.cls-1{fill:#e5e5e5;}.cls-2{fill:#227cc0;}.cls-3,.cls-4{fill:#3a3031;}.cls-4{font-size:102.01px;font-family:Octarine-Bold, Octarine;font-weight:700;}.cls-5{letter-spacing:-0.01em;}.cls-6{letter-spacing:-0.01em;}.cls-7{letter-spacing:-0.02em;}</style></defs><g id="Layer_2" data-name="Layer 2"><g id="Backgrounds"><rect class="cls-1" width="1100" height="1100"/></g><g id="Logo"><path class="cls-2" d="M444.33,659.44v2.61h-45.6l-.34-.56-33.27-55.87h-106l18.5-31.73h68.72L296.4,490l-101.73,172H150L278.81,447.5a29.92,29.92,0,0,1,8-9.25,18.17,18.17,0,0,1,11.09-3.38,17.36,17.36,0,0,1,10.92,3.38,30.75,30.75,0,0,1,7.88,9.25l81.65,135.6Z"/><path class="cls-2" d="M641.63,659.35l1.07.77h.13A8.36,8.36,0,0,1,641.63,659.35ZM863.46,592c16.78-5.56,29.88-14.64,39.17-27.31s14-28.31,14-47c0-12.5-2.1-23.8-6.38-33.91A71.26,71.26,0,0,0,891.84,458a83.9,83.9,0,0,0-29.45-16.31,122,122,0,0,0-34-5.65h-144v39.09H823q23.43,0,36.35,10.62t13,32.54q0,21.9-12.42,33.44T823,563.32H715.48v34.51H812l65.3,62.29h63.88Z"/><path class="cls-3" d="M684.4,436.07V641.41a27.63,27.63,0,0,1-1.07,8,19.69,19.69,0,0,1-5.56,9.25c-.56.51-1.12,1-1.72,1.45-4.19,3.13-9.37,4.71-15.58,4.71a32.55,32.55,0,0,1-16.78-4.71,8.36,8.36,0,0,1-1.2-.77l-3.9-2.78a.21.21,0,0,1-.13-.09L444.33,498.06V659.44L398.39,583.1V458.59c0-7.2,2.23-12.89,6.64-17.13s10.44-6.29,18-6.29A28.94,28.94,0,0,1,433.33,437a37.93,37.93,0,0,1,10.28,6.16L638.46,600.09v-164Z"/><text class="cls-4" transform="translate(194.14 777.5)">Conc<tspan class="cls-5" x="274.82" y="0">r</tspan><tspan class="cls-6" x="321.75" y="0">e</tspan><tspan class="cls-5" x="385.1" y="0">t</tspan><tspan x="423.66" y="0">e L</tspan><tspan class="cls-7" x="575.35" y="0">L</tspan><tspan x="629.52" y="0">C</tspan></text></g></g></svg>