<?xml version="1.0" encoding="utf-8"?>
<!-- Generator: Adobe Illustrator 26.3.1, SVG Export Plug-In . SVG Version: 6.00 Build 0)  -->
<svg version="1.1" id="Layer_1" xmlns="http://www.w3.org/2000/svg" xmlns:xlink="http://www.w3.org/1999/xlink" x="0px" y="0px"
	 viewBox="0 0 805.5 805.5" style="enable-background:new 0 0 805.5 805.5;" xml:space="preserve">
<style type="text/css">
	.st0{fill:#2B2B2B;}
	.st1{fill:#FFFFFF;}
</style>
<rect class="st0" width="805.5" height="805.5"/>
<g>
	<polygon class="st1" points="208.1,593.9 193.6,593.9 193.6,606.3 176.8,606.3 176.8,546 193.6,546 193.6,552.2 208.1,552.2 
		208.1,531.4 162.3,531.4 162.3,620.9 208.1,620.9 	"/>
	<polygon class="st1" points="228.6,595.6 245.4,590.8 245.4,620.9 259.9,620.9 259.9,531.4 245.4,531.4 245.4,576.1 228.6,581.1 
		228.6,531.4 214.1,531.4 214.1,620.9 228.6,620.9 	"/>
	<path class="st1" d="M297.2,620.9h14.5v-89.4h-45.8v89.4h14.4v-25.2l16.8-4.9V620.9z M298.2,545v32l-18.8,5.4V545H298.2z"/>
	<path class="st1" d="M363.6,531.4h-45.7v89.4h45.7V531.4z M331.3,607.3V545h18.8v62.3H331.3z"/>
	<polygon class="st1" points="369.7,606.3 369.7,620.9 415.4,620.9 415.4,569 384.1,577.3 384.1,546 401,546 401,552.2 415.4,552.2 
		415.4,531.4 369.7,531.4 369.7,596.2 401,587.8 401,606.3 	"/>
	<polygon class="st1" points="442,620.9 487.7,620.9 487.7,593.9 473.3,593.9 473.3,606.3 456.4,606.3 456.4,546 473.3,546 
		473.3,552.2 487.7,552.2 487.7,531.4 442,531.4 	"/>
	<path class="st1" d="M539.5,620.9v-89.4h-45.7v89.4h14.4v-25.2l16.8-4.9v30.1H539.5z M526.1,545v32l-18.8,5.4V545H526.1z"/>
	<path class="st1" d="M591.3,531.4h-45.6v89.4h14.4v-25.2l6.5-1.7l9.8,27h15.3l-11.2-30.8l10.8-2.8L591.3,531.4z M577.9,576.9
		l-18.7,5.5V545h18.7V576.9z"/>
	<path class="st1" d="M636.3,531.4h-38.7v89.4h1c0.9,0,5,0,10.1,0c9,0,24,0,25.2,0.1h0.2c3.1-0.1,4.4-1.7,5.9-3.5
		c0.8-1.1,1.8-2.1,2.9-3l0.4-0.3v-75.9L636.3,531.4z M629.7,545v62.3H611V545H629.7z"/>
	<path class="st1" d="M205.5,700.6h11.2v-18.7l23.1-6.2V634h-34.3V700.6z M228.7,645.2v21.8l-12,3.5v-25.4H228.7z"/>
	<path class="st1" d="M278.1,675.7V634h-34.2v66.7h11.2v-18.7l4.4-1.2l7.3,19.9h11.9l-8.3-22.8L278.1,675.7z M266.9,645.2v21.8
		l-11.8,3.5v-25.4H266.9z"/>
	<path class="st1" d="M282.2,700.6h34.3V634h-34.3V700.6z M305.3,645.2v44.1h-11.9v-44.1H305.3z"/>
	<path class="st1" d="M320.5,634v66.7h1h7.1c6.8,0,18,0,19,0.1h0.2c2.4,0,3.4-1.3,4.6-2.7c0.6-0.8,1.3-1.5,2.1-2.2l0.4-0.3v-56.4
		l-5.2-5.1H320.5z M344.5,644.2v46.1h-13.8v-46.1L344.5,644.2z"/>
	<polygon class="st1" points="381.9,689.3 370,689.3 370,634 358.8,634 358.8,700.6 393.2,700.6 393.2,634 381.9,634 	"/>
	<polygon class="st1" points="397.1,700.6 431.5,700.6 431.5,680.1 420.3,680.1 420.3,689.3 408.3,689.3 408.3,645.2 420.3,645.2 
		420.3,649.8 431.5,649.8 431.5,634 397.1,634 	"/>
	<polygon class="st1" points="435.5,645.2 447.1,645.2 447.1,700.6 458.3,700.6 458.3,645.2 469.8,645.2 469.8,634 435.5,634 	"/>
	<rect x="473.8" y="634" class="st1" width="11.2" height="66.7"/>
	<path class="st1" d="M489,700.6h34.3V634H489V700.6z M513.1,644.2v46.1h-13.9v-46.1H513.1z"/>
	<polygon class="st1" points="550.4,648.7 540.1,634 527.3,634 527.3,700.6 538.5,700.6 538.5,651.2 550.4,668.2 550.4,700.6 
		561.6,700.6 561.6,634 550.4,634 	"/>
	<polygon class="st1" points="565.6,682.4 588.7,676.3 588.7,689.3 565.6,689.3 565.6,700.6 599.9,700.6 599.9,661.7 576.8,667.8 
		576.8,645.2 588.7,645.2 588.7,649.8 599.9,649.8 599.9,634 565.6,634 	"/>
	<path class="st1" d="M233.4,334.7l39.9-69v-83c-12.9-0.5-28.4-0.8-35.8,12C229.6,196.5,234.8,327.3,233.4,334.7z"/>
	<path class="st1" d="M572,391.8V266.2c-0.6,1-39.2,68-39.8,68.9v82.6C551.7,419.5,571,414.9,572,391.8z"/>
	<path class="st1" d="M426.7,118.9c-18.8-11.9-40.3-24.9-55,0.5h55.9L426.7,118.9z"/>
	<path class="st1" d="M238.7,401.4l34.5,20V289.7l-44,76.3C222.1,377.8,226.6,394.7,238.7,401.4z"/>
	<path class="st1" d="M397.3,493c12.5,7.5,30,2.1,36.3-11h-55.3L397.3,493z"/>
	<path class="st1" d="M578.7,215.5c-1.7-6.6-6.1-12.3-12-15.8c-3.5-2-31.7-18.3-34.4-19.8v131.2c0.4-0.7,39.3-68.2,39.8-68.9
		C577.1,234.4,581.7,225,578.7,215.5z"/>
	<path class="st1" d="M520.3,444.1c0-30.5,0-81.6,0-112.2c0.1-15.9-0.1-160.8,0-172.8c0.9-14.4-10-26.8-24.4-27.7
		c-0.5,0-1,0-1.5-0.1c-33.8-0.4-102,0.3-136.6,0c-4-0.1-41.6,0.1-46.6,0c-23.2,1.4-27.4,19.5-25.9,39.4c-0.2,66.8,0.1,189.6,0,257.5
		c0,4.6,0,11.2,0,15.8c2.1,28.7,26.5,26.4,48.2,25.9c21.4,0.4,91.7-0.3,113.9,0c4,0.1,41.9,0,46.9,0
		C508.2,470.2,520.6,458,520.3,444.1z M463.8,309.6c-5.6,4.4-10.1,9.9-13.3,16.2c-18.5,38-77,38-95.5,0c-6.4-12.4-17-20.6-29.9-25
		c36.4-11.2,29.4-53.9,77.6-54.4c48.4,0.6,41.1,43.2,77.6,54.4C474.3,302.8,468.8,305.8,463.8,309.6z"/>
	<path class="st1" d="M404.2,295.2H419c-5.2-63.8-37-39.7-35.1,5.3c-1.5,47.4,30.6,66.9,35.1,5.4h-14.8c-0.2,6-1.2,12-2.8,17.8
		c-3.8-13-3.8-33.3,0-46.3C403.1,283.2,404,289.2,404.2,295.2z"/>
</g>
</svg>
