<?xml version="1.0" encoding="utf-8"?>
<!-- Generator: Adobe Illustrator 26.3.1, SVG Export Plug-In . SVG Version: 6.00 Build 0)  -->
<svg version="1.1" id="Layer_1" xmlns="http://www.w3.org/2000/svg" xmlns:xlink="http://www.w3.org/1999/xlink" x="0px" y="0px"
	 viewBox="0 0 1441.4 608.5" style="enable-background:new 0 0 1441.4 608.5;" xml:space="preserve">
<style type="text/css">
	.st0{enable-background:new    ;}
	.st1{fill:#3C6868;}
	.st2{fill:#D8B164;}
	.st3{fill:#3E787F;}
	.st4{fill:#478C99;}
</style>
<g id="Layer_2_00000182518753441061758930000015259236298840248728_">
	<g id="Layer_1-2">
		<g class="st0">
			<path class="st1" d="M555.9,135.1V31.2h24.2v84.3h51.8v19.6H555.9z"/>
			<path class="st1" d="M632,135.1l46.1-103.8h23.7l46.6,103.8h-25.2l-38.1-91.7h9.6l-38.1,91.7H632z M655.3,112.8l6.1-18.2h53.7
				l6.2,18.2H655.3z"/>
			<path class="st1" d="M759.3,135.1V31.2h19.9l44.2,73.3h-10.5l43.3-73.3h20v103.8h-22.4l-0.3-69.3h4.4l-35,58.1h-10.7l-35.5-58.1
				h4.9v69.3H759.3z"/>
			<path class="st1" d="M900.8,135.1V31.2h50.7c13.1,0,22.9,2.5,29.4,7.4c6.6,4.9,9.9,11.5,9.9,19.6c0,5.4-1.3,10.2-4,14.2
				c-2.7,4-6.4,7.1-11.1,9.3c-4.7,2.2-10,3.3-15.9,3.3l2.8-6.2c6.5,0,12.3,1.1,17.3,3.3c5,2.2,8.9,5.3,11.8,9.5
				c2.9,4.2,4.3,9.2,4.3,15.3c0,8.9-3.5,15.8-10.5,20.8c-7,5-17.4,7.5-31,7.5H900.8z M924.7,117h28.2c6.1,0,10.8-1,14.1-3.1
				c3.3-2.1,4.9-5.3,4.9-9.6c0-4.5-1.6-7.7-4.9-9.8c-3.3-2.1-8-3.1-14.1-3.1h-30V73.8h25.7c5.8,0,10.3-1,13.4-3
				c3.1-2,4.7-5.1,4.7-9.3s-1.6-7.2-4.7-9.2c-3.1-2-7.6-3-13.4-3h-23.9V117z"/>
		</g>
		<g class="st0">
			<path class="st1" d="M606.4,272.3c-8.2,0-15.8-1.3-22.7-4c-6.9-2.7-13-6.4-18.1-11.3c-5.1-4.8-9.1-10.5-11.9-17.1
				s-4.2-13.6-4.2-21.4c0-7.8,1.4-15,4.2-21.4c2.8-6.5,6.8-12.1,11.9-17c5.1-4.8,11.1-8.6,18-11.3c6.9-2.7,14.4-4,22.6-4
				c8.2,0,15.7,1.3,22.6,3.9c6.9,2.6,12.9,6.4,18,11.2c5.1,4.8,9.1,10.5,11.9,17.1c2.8,6.5,4.2,13.7,4.2,21.5
				c0,7.7-1.4,14.9-4.2,21.4c-2.8,6.6-6.8,12.3-11.9,17.1c-5.1,4.8-11.2,8.6-18,11.2C622,271,614.5,272.3,606.4,272.3z M606.2,251.9
				c4.6,0,8.9-0.8,12.8-2.4c3.9-1.6,7.3-4,10.3-7c3-3,5.3-6.5,6.9-10.5c1.6-4,2.4-8.5,2.4-13.4c0-4.9-0.8-9.4-2.4-13.4
				c-1.6-4-3.9-7.5-6.9-10.5c-3-3-6.4-5.3-10.3-7c-3.9-1.6-8.2-2.4-12.8-2.4c-4.6,0-9,0.8-12.9,2.4c-4,1.6-7.4,4-10.3,7
				c-2.9,3-5.2,6.5-6.8,10.5c-1.6,4-2.4,8.5-2.4,13.4c0,4.9,0.8,9.4,2.4,13.4c1.6,4,3.9,7.5,6.8,10.5c2.9,3,6.4,5.3,10.3,7
				C597.3,251.1,601.6,251.9,606.2,251.9z"/>
			<path class="st1" d="M681.1,270.5V166.7h78.5v19.3h-54.3v84.5H681.1z M703.4,232.7v-19.3h49.8v19.3H703.4z"/>
			<path class="st1" d="M868,272.3c-8.2,0-15.8-1.3-22.7-3.9c-6.9-2.6-12.9-6.4-17.9-11.2c-5-4.8-9-10.5-11.8-17.1
				c-2.8-6.5-4.2-13.7-4.2-21.5c0-7.8,1.4-15,4.2-21.5c2.8-6.5,6.8-12.2,11.9-17.1c5.1-4.8,11.2-8.6,18.1-11.2
				c6.9-2.6,14.5-3.9,22.8-3.9c9.2,0,17.5,1.5,24.8,4.6c7.4,3.1,13.6,7.5,18.6,13.3l-15.3,14.2c-3.9-4.1-8-7-12.5-9
				c-4.4-1.9-9.3-2.9-14.7-2.9c-4.9,0-9.5,0.8-13.6,2.4c-4.2,1.6-7.7,3.9-10.8,6.9c-3,3-5.3,6.5-7,10.5c-1.6,4.1-2.4,8.6-2.4,13.5
				c0,4.7,0.8,9.2,2.4,13.3c1.6,4.1,4,7.6,7,10.6c3,3,6.6,5.3,10.7,7c4.1,1.7,8.6,2.5,13.6,2.5c4.7,0,9.4-0.8,13.9-2.4
				c4.5-1.6,8.9-4.2,13.1-7.9l13.6,17.4c-5.7,4.4-12.3,7.6-19.7,9.9C882.8,271.2,875.4,272.3,868,272.3z M910,259.1l-22-3.3v-38.9
				h22V259.1z"/>
			<path class="st1" d="M982.7,272.3c-8.2,0-15.8-1.3-22.7-4s-13-6.4-18.1-11.3c-5.1-4.8-9.1-10.5-11.9-17.1s-4.2-13.6-4.2-21.4
				c0-7.8,1.4-15,4.2-21.4c2.8-6.5,6.8-12.1,11.9-17c5.1-4.8,11.1-8.6,18-11.3s14.4-4,22.6-4c8.2,0,15.7,1.3,22.6,3.9
				c6.9,2.6,12.9,6.4,18,11.2c5.1,4.8,9.1,10.5,11.9,17.1c2.8,6.5,4.2,13.7,4.2,21.5c0,7.7-1.4,14.9-4.2,21.4
				c-2.8,6.6-6.8,12.3-11.9,17.1c-5.1,4.8-11.2,8.6-18,11.2C998.3,271,990.8,272.3,982.7,272.3z M982.5,251.9
				c4.6,0,8.9-0.8,12.8-2.4c3.9-1.6,7.3-4,10.3-7c3-3,5.3-6.5,6.9-10.5c1.6-4,2.4-8.5,2.4-13.4c0-4.9-0.8-9.4-2.4-13.4
				c-1.6-4-3.9-7.5-6.9-10.5c-3-3-6.4-5.3-10.3-7c-3.9-1.6-8.2-2.4-12.8-2.4c-4.6,0-9,0.8-12.9,2.4c-4,1.6-7.4,4-10.3,7
				c-2.9,3-5.2,6.5-6.8,10.5c-1.6,4-2.4,8.5-2.4,13.4c0,4.9,0.8,9.4,2.4,13.4c1.6,4,3.9,7.5,6.8,10.5c2.9,3,6.4,5.3,10.3,7
				C973.6,251.1,977.9,251.9,982.5,251.9z"/>
			<path class="st1" d="M1057.4,270.5V166.7h47.2c11.3,0,21.2,2.2,29.8,6.5c8.6,4.3,15.3,10.3,20.2,18.1c4.8,7.8,7.3,16.9,7.3,27.4
				c0,10.5-2.4,19.6-7.3,27.4c-4.8,7.8-11.6,13.8-20.2,18.1c-8.6,4.3-18.5,6.5-29.8,6.5H1057.4z M1081.6,250.9h21.8
				c6.9,0,12.9-1.3,18-3.9c5.1-2.6,9-6.4,11.9-11.3c2.8-4.9,4.2-10.6,4.2-17.1c0-6.6-1.4-12.4-4.2-17.2c-2.8-4.8-6.8-8.6-11.9-11.2
				c-5.1-2.6-11.1-3.9-18-3.9h-21.8V250.9z"/>
		</g>
		<g class="st0">
			<path class="st1" d="M555.9,405.9V302.1h24.2v84.3h51.8v19.6H555.9z"/>
			<path class="st1" d="M686.7,407.7c-14.7,0-26.3-4.1-34.6-12.3c-8.3-8.2-12.5-20-12.5-35.3v-58h24.2v57.4c0,9.8,2,16.9,6.1,21.3
				c4.1,4.4,9.7,6.6,16.9,6.6c7.3,0,13-2.2,17.1-6.6c4.1-4.4,6.1-11.5,6.1-21.3v-57.4h23.6v58c0,15.3-4.2,27.1-12.5,35.3
				C712.9,403.6,701.4,407.7,686.7,407.7z"/>
		</g>
		<g class="st0">
			<path class="st1" d="M779.6,405.9v-84.3h-33.2v-19.6h90.5v19.6h-33.2v84.3H779.6z"/>
			<path class="st1" d="M849.8,405.9V302.1h24.2v103.8H849.8z M872,363.3V343h50.7v20.3H872z M921,405.9V302.1h24v103.8H921z"/>
			<path class="st1" d="M969.6,405.9V302.1h78.5v19.3h-54.6v65.3h56.5v19.3H969.6z M991.7,362.6v-18.8h50v18.8H991.7z"/>
			<path class="st1" d="M1069.1,405.9V302.1h44.4c14.4,0,25.7,3.3,33.7,10s12,15.8,12,27.5c0,7.8-1.8,14.5-5.5,20.1
				c-3.7,5.6-8.9,9.8-15.6,12.8c-6.7,2.9-14.7,4.4-24,4.4h-31.7l11-10.4v39.5H1069.1z M1093.3,369.1l-11-11.4h30.4
				c7.3,0,12.9-1.6,16.6-4.7c3.8-3.2,5.6-7.6,5.6-13.3c0-5.7-1.9-10.2-5.6-13.3c-3.8-3.1-9.3-4.7-16.6-4.7h-30.4l11-11.4V369.1z
				 M1135.3,405.9l-26.1-37.7h25.8l26.1,37.7H1135.3z"/>
			<path class="st1" d="M1164.7,405.9l46.1-103.8h23.7l46.6,103.8h-25.2l-38.1-91.7h9.6l-38.1,91.7H1164.7z M1187.9,383.7l6.1-18.2
				h53.7l6.2,18.2H1187.9z"/>
			<path class="st1" d="M1291.9,405.9V302.1h19.9l61.3,74.8h-9.6v-74.8h23.7v103.8h-19.9l-61.3-74.8h9.6v74.8H1291.9z"/>
		</g>
		<g class="st0">
			<path class="st1" d="M605.6,543.1c-8,0-15.5-1.3-22.3-3.9c-6.9-2.6-12.8-6.4-17.9-11.2c-5-4.8-9-10.5-11.8-17.1
				c-2.8-6.5-4.2-13.7-4.2-21.5c0-7.8,1.4-15,4.2-21.5c2.8-6.5,6.8-12.2,11.9-17.1c5.1-4.8,11.1-8.6,17.9-11.2
				c6.9-2.6,14.3-3.9,22.3-3.9c9,0,17.2,1.6,24.5,4.7c7.3,3.1,13.4,7.7,18.4,13.7l-15.6,14.2c-3.5-4.1-7.4-7.1-11.8-9.2
				c-4.4-2.1-9.2-3.1-14.3-3.1c-4.8,0-9.3,0.8-13.3,2.4c-4.1,1.6-7.6,3.9-10.5,6.9c-3,3-5.3,6.5-6.9,10.5c-1.6,4.1-2.4,8.6-2.4,13.5
				c0,4.9,0.8,9.4,2.4,13.5c1.6,4.1,3.9,7.6,6.9,10.5c3,3,6.5,5.3,10.5,6.9c4.1,1.6,8.5,2.4,13.3,2.4c5.1,0,9.9-1.1,14.3-3.2
				c4.4-2.1,8.3-5.2,11.8-9.3l15.6,14.2c-4.9,6-11.1,10.6-18.4,13.8C622.9,541.5,614.7,543.1,605.6,543.1z"/>
			<path class="st1" d="M663.2,541.3V437.5h24.2v103.8H663.2z M685.4,498.8v-20.3h50.7v20.3H685.4z M734.4,541.3V437.5h24v103.8
				H734.4z"/>
			<path class="st1" d="M829.1,543.1c-14.7,0-26.3-4.1-34.6-12.3c-8.3-8.2-12.5-20-12.5-35.3v-58h24.2v57.4c0,9.8,2,16.9,6.1,21.3
				c4.1,4.4,9.7,6.6,16.9,6.6c7.3,0,13-2.2,17.1-6.6c4.1-4.4,6.1-11.5,6.1-21.3v-57.4H876v58c0,15.3-4.2,27.1-12.5,35.3
				C855.2,539,843.8,543.1,829.1,543.1z"/>
			<path class="st1" d="M899.9,541.3V437.5h44.4c14.4,0,25.7,3.3,33.7,10s12,15.8,12,27.5c0,7.8-1.8,14.5-5.5,20.1
				c-3.7,5.6-8.8,9.8-15.6,12.8c-6.7,2.9-14.7,4.4-24,4.4h-31.7l11-10.4v39.5H899.9z M924.1,504.5l-11-11.4h30.4
				c7.3,0,12.9-1.6,16.6-4.7c3.8-3.2,5.6-7.6,5.6-13.3c0-5.7-1.9-10.2-5.6-13.3s-9.3-4.7-16.6-4.7h-30.4l11-11.4V504.5z
				 M966.1,541.3l-26.1-37.7h25.8l26.1,37.7H966.1z"/>
			<path class="st1" d="M1058.8,543.1c-8,0-15.5-1.3-22.3-3.9c-6.9-2.6-12.8-6.4-17.9-11.2c-5-4.8-9-10.5-11.8-17.1
				c-2.8-6.5-4.2-13.7-4.2-21.5c0-7.8,1.4-15,4.2-21.5c2.8-6.5,6.8-12.2,11.9-17.1c5.1-4.8,11.1-8.6,17.9-11.2
				c6.9-2.6,14.3-3.9,22.3-3.9c9,0,17.2,1.6,24.5,4.7c7.3,3.1,13.4,7.7,18.4,13.7l-15.6,14.2c-3.5-4.1-7.4-7.1-11.8-9.2
				c-4.4-2.1-9.2-3.1-14.3-3.1c-4.8,0-9.3,0.8-13.3,2.4c-4.1,1.6-7.6,3.9-10.5,6.9c-3,3-5.3,6.5-6.9,10.5c-1.6,4.1-2.4,8.6-2.4,13.5
				c0,4.9,0.8,9.4,2.4,13.5c1.6,4.1,3.9,7.6,6.9,10.5c3,3,6.5,5.3,10.5,6.9c4.1,1.6,8.5,2.4,13.3,2.4c5.1,0,9.9-1.1,14.3-3.2
				c4.4-2.1,8.3-5.2,11.8-9.3l15.6,14.2c-4.9,6-11.1,10.6-18.4,13.8C1076.1,541.5,1067.9,543.1,1058.8,543.1z"/>
			<path class="st1" d="M1116.3,541.3V437.5h24.2v103.8H1116.3z M1138.6,498.8v-20.3h50.7v20.3H1138.6z M1187.5,541.3V437.5h24
				v103.8H1187.5z"/>
		</g>
		<g id="Layer_10">
			<path class="st2" d="M442.9,152.6l-72.3-60.1l61.5-73.8c4-4.8,3.4-12-1.5-16s-12-3.4-16,1.5l-61.4,73.8L281,17.8
				c-4.9-3.9-12-3.1-16,1.8c-3.8,4.8-3.2,11.7,1.4,15.7l72.3,60.1L2.6,499.3c-4,4.8-3.4,12,1.4,16c0,0,0,0,0,0l0,0
				c4.8,4,12,3.4,16-1.4c0,0,0,0,0,0l336.1-403.9l72.3,60.1c4.8,4,12,3.4,16-1.4c0,0,0,0,0,0C448.4,163.7,447.7,156.6,442.9,152.6z"
				/>
		</g>
		<g id="Layer_9">
			<g id="Layer_6">
				<g id="Layer_7">
					<path class="st3" d="M296.5,545.7c21-36,42.1-72,63.1-108c-13-14.7-25.9-29.4-38.8-44.1l-8.2-9.3c15.9-4.9,31.8-9.8,47.7-14.7
						c0.6,1.2,1.3,2.3,1.9,3.5c2.2,4.1,4.5,8.2,6.7,12.4c0.3,0.6,0.6,1,0.8,1.6c10.6,19.4,21.2,38.9,31.9,58.4
						C366.6,478.7,331.6,512.1,296.5,545.7z"/>
				</g>
				<g id="Layer_2-2">
					<path class="st4" d="M439.2,228.2c-13.5-6.2-26.9-12.4-40.3-18.6l-188.2,6.1c-6-6.5-12-12.9-18-19.4c0.7-7.2,1.3-14.4,1.9-21.7
						c42-18.4,61-28.8,67.8-34.6l0.1-0.1c0.3-0.3,4.3-8,9.5-18.5l-16.1-11.9c-9.3-6.9-18.7-12-27.4-16.6C206.9,79,185.4,65,163.9,51
						c-17.6,12.9-35.2,25.7-52.9,38.6l-1,4c-1,4-2.1,8.2-3.1,12.6c-0.3,1.5-0.6,3-1,4.4c-0.1,0.8-0.3,1.5-0.5,2.2
						c-0.3,1.6-0.6,3.1-0.9,4.6c-0.2,0.8-0.3,1.6-0.4,2.3l-0.8,4.8l-0.2,1.5c-0.1,0.8-0.2,1.5-0.3,2.2c-0.1,0.8-0.2,1.5-0.3,2.2
						c-0.1,0.4-0.1,0.9-0.2,1.3c-0.1,0.8-0.2,1.7-0.3,2.5c-0.2,1.7-0.4,3.3-0.6,4.9c-0.1,0.9-0.2,1.6-0.3,2.5c0,0.1,0,0.2-0.1,0.4
						c-0.1,1.5-0.3,2.9-0.5,4.4c-0.1,1.2-0.2,2.4-0.4,3.5s-0.2,2.3-0.3,3.5c-0.3,4.3-0.6,8.6-0.8,13c-0.1,0.8-0.1,1.7-0.1,2.4
						c-0.1,2.2-0.1,3.9-0.1,4.6v0.4c0,1.6-1.3,28.9-4.2,88.8c5.8,26.5,11.7,52.9,17.5,79.3c6.1,15.8,12.3,31.6,18.4,47.3
						c18.8,2.7,34.9,4.4,47.2,5.4c0,0,45.2,3.7,91.2,2.1c5.3-0.2,10.7-0.4,16.2-0.8c12.3-0.7,24.2-1.6,35.9-2.8
						c17.1-1.8,33.5-4,49-6.6c0.2-0.1,0.4-0.1,0.6-0.1c28.4-4.8,54-10.7,76.5-16.8c0.1-0.1,0.1-0.2,0.1-0.3c6.1-17,12.3-34,18.4-51
						c3,4.8,5.8,9.6,8.8,14.4l15.4,9.1v-55.7C472.9,267.1,456.1,247.7,439.2,228.2z"/>
				</g>
				<g id="Layer_5">
					<path class="st3" d="M111,89.7l-1,4c-1,4.1-2.1,8.3-3.1,12.6c-0.3,1.5-0.6,3-1,4.4c-0.1,0.8-0.3,1.5-0.5,2.2
						c-0.3,1.6-0.6,3.1-0.9,4.6c-0.2,0.8-0.3,1.6-0.4,2.3l-0.8,4.8l-0.2,1.5c-0.1,0.8-0.2,1.5-0.3,2.2c-0.1,0.8-0.2,1.5-0.3,2.2
						c-0.1,0.4-0.1,0.9-0.2,1.3c-0.1,0.8-0.2,1.7-0.3,2.5c-0.2,1.7-0.4,3.3-0.6,4.9c-0.1,0.9-0.2,1.6-0.3,2.5c0,0.1,0,0.2-0.1,0.4
						c-0.1,1.5-0.3,2.9-0.5,4.4c-0.2,2.4-0.4,4.7-0.6,7l0,0c-9,5.3-18,10.5-27,15.9c-7.2,3.6-14.2,7.2-21.4,10.9
						c0.5-6,0.9-11.9,1.4-17.9l15.1-19.3C82.2,125.5,96.6,107.6,111,89.7z"/>
				</g>
				<path class="st4" d="M358,560.2c20.3-42,40.5-83.9,60.8-125.8c-16.1-15.9-32.2-31.7-48.3-47.6l-1.5-1.5
					c-3.9-3.8-7.6-7.5-11.4-11.3l4.7-1l80.4-18.1c1.5,5,3,9.9,4.6,14.9c5.5,18,11,35.9,16.5,53.9C428.4,469.2,393.2,514.7,358,560.2
					z"/>
				<path class="st4" d="M196.1,361.9l-67.4,94.7c0.9,37,1.8,73.9,2.8,110.8c8.9-34.4,17.8-68.8,26.7-103.1
					c33-31.1,65.9-62.2,98.9-93.3C236.8,368,216.5,365,196.1,361.9z"/>
			</g>
			<path class="st4" d="M109.6,331.7c-17.3,26-34.7,51.9-52.1,77.9c16.2,30.3,32.4,60.5,48.5,90.8c-7.5-29.7-15-59.3-22.6-89
				c17.8-7.4,35.7-14.8,53.5-22.2C127.9,370.1,118.7,350.9,109.6,331.7z"/>
		</g>
	</g>
</g>
</svg>
