<?xml version="1.0" encoding="utf-8"?>
<!-- Generator: Adobe Illustrator 26.3.1, SVG Export Plug-In . SVG Version: 6.00 Build 0)  -->
<svg version="1.1" id="Layer_1" xmlns="http://www.w3.org/2000/svg" xmlns:xlink="http://www.w3.org/1999/xlink" x="0px" y="0px"
	 viewBox="0 0 794.6 165.5" style="enable-background:new 0 0 794.6 165.5;" xml:space="preserve">
<style type="text/css">
	.st0{fill:#BD586D;}
	.st1{fill:#FFFFFF;}
</style>
<rect y="0" class="st0" width="794.6" height="165.5"/>
<g>
	<path class="st1" d="M121.4,102.2c-0.6-2,0-4.2,1.5-5.6c7.6-7.6,11.4-19.4,11.4-35c0-37.4-19.6-45.3-53.8-45.3H33.9
		c-3.3-0.1-5.9,2.5-6,5.8c0,0.1,0,0.1,0,0.2v112.8c-0.1,3.3,2.5,5.9,5.8,6c0.1,0,0.1,0,0.2,0h31.3c3.2,0.1,5.9-2.5,6-5.8
		c0-0.1,0-0.2,0-0.2v-20.3c-0.1-3.3,2.5-5.9,5.8-6c0.1,0,0.1,0,0.2,0c2.7,0,5.1,2,5.6,4.7l5.2,22.9c0.5,2.7,2.8,4.6,5.6,4.7H125
		c3.2,0,5.8-2.6,5.8-5.8c0-0.6-0.1-1.1-0.2-1.7L121.4,102.2z M81.6,74.9h-4.6c-3.2,0.1-5.9-2.5-6-5.7c0-0.1,0-0.2,0-0.3V56.4
		c-0.1-3.2,2.5-5.9,5.8-6c0.1,0,0.2,0,0.2,0h3.5c6.9,0,10.2,4.1,10.2,12.3C90.7,70.8,87.7,74.9,81.6,74.9z"/>
	<path class="st1" d="M255.2,131.5l-24.4-109c-0.9-3.6-4.1-6.1-7.8-6.1h-52.7c-3.7,0-6.9,2.6-7.6,6.1l-24,109.2
		c-0.9,4.2,1.7,8.4,5.9,9.3c0.6,0.1,1.2,0.2,1.7,0.2h26.3c3.7,0,6.9-2.7,7.6-6.3l0.4-1.7c0.7-3.7,4-6.4,7.8-6.3h15.8
		c3.6,0,6.8,2.5,7.6,6l0.6,2.4c0.9,3.5,4,6,7.6,6h27.6c4.4,0,7.9-3.5,7.9-7.9C255.4,132.7,255.3,132.1,255.2,131.5z M196.7,93.9
		c-4.4,0-7.9-3.5-7.9-7.9c0-0.4,0-0.8,0.1-1.3l5.6-34.5h4.7l5.4,34.5c0.7,4.3-2.3,8.3-6.6,9C197.5,93.8,197.1,93.9,196.7,93.9z"/>
	<path class="st1" d="M371,16.4h-27.6c-4.3,0-7.8,3.5-7.8,7.8V51c0,2.1-1.7,3.8-3.8,3.7c0,0-0.1,0-0.1,0c-1.3,0-2.4-0.6-3.2-1.7
		l-22-33c-1.4-2.3-4-3.7-6.7-3.7h-30.2c-4.3,0-7.8,3.5-7.8,7.8v109.2c0,4.3,3.5,7.8,7.8,7.8h27.6c4.3,0,7.8-3.5,7.8-7.8v-29.4
		c-0.1-2.1,1.6-3.9,3.7-3.9c0.1,0,0.1,0,0.2,0c1.3,0,2.6,0.7,3.2,1.9l21.8,35.2c1.3,2.6,4,4.2,6.9,4.1H371c4.3,0,7.8-3.5,7.8-7.8
		V24.2C378.8,19.9,375.3,16.4,371,16.4z"/>
	<path class="st1" d="M442.7,16.4h-45.1c-4.2,0-7.6,3.3-7.6,7.5c0,0.1,0,0.1,0,0.2v109.5c0,4.2,3.3,7.6,7.5,7.6c0.1,0,0.1,0,0.2,0
		h46.9c43,0,58.7-22.7,58.7-63.9C503.3,34.8,485.4,16.4,442.7,16.4z M440.9,106c-4.2,0-7.6-3.3-7.6-7.5c0-0.1,0-0.1,0-0.2V59.2
		c0-4.2,3.3-7.6,7.5-7.6c0.1,0,0.1,0,0.2,0c8,0,13,1.9,15.3,5.6c2.4,3.7,3.5,11.2,3.5,22.3C459.7,94.6,458.6,106,440.9,106z"/>
	<path class="st1" d="M600.3,16.4h-28.7c-4,0.1-7.2,3.3-7.3,7.3v110.1c0,4,3.2,7.4,7.3,7.5h28.7c4-0.1,7.3-3.4,7.3-7.5V23.6
		C607.5,19.7,604.3,16.4,600.3,16.4z"/>
	<path class="st1" d="M759,16.4h-51.8c-3.8,0.1-6.9,2.8-7.6,6.5l-3.2,19.4c-0.5,2.3-2.7,3.7-5,3.3c-1.6-0.3-2.8-1.5-3.2-3.1
		l-3.9-19.9c-0.8-3.6-4-6.2-7.6-6.1h-50.1c-4.3,0-7.8,3.5-7.8,7.8v109.1c0,4.3,3.5,7.8,7.8,7.8h27.6c4.3,0,7.8-3.5,7.8-7.8V76.9h2
		l9.5,56.4c0.7,3.7,3.9,6.4,7.6,6.5h23.1c3.8-0.1,7-2.8,7.6-6.5l9.7-56.4h2v56.4c0,4.3,3.5,7.8,7.8,7.8h27.6c4.3,0,7.8-3.5,7.8-7.8
		V24.2C766.7,19.9,763.3,16.4,759,16.4z"/>
	<path class="st1" d="M549.5,104.1h-33.9c-2.3,0-4.2,1.8-4.3,4.1c0,0,0,0.1,0,0.1v28.5c0,2.3,1.8,4.3,4.1,4.3c0,0,0.1,0,0.1,0h21.7
		l11.5,7.8c0.5,0.3,1.2,0.2,1.5-0.3c0.1-0.2,0.2-0.4,0.2-0.6v-7c2-0.4,3.4-2.2,3.3-4.2v-28.5c0.1-2.3-1.8-4.2-4.1-4.3
		C549.6,104.1,549.5,104.1,549.5,104.1z M522.4,136.8c-2.2,0-4-1.8-4-4s1.8-4,4-4s4,1.8,4,4S524.6,136.8,522.4,136.8z M532.5,126.6
		c-2.2,0-4-1.8-4-4s1.8-4,4-4s4,1.8,4,4C536.5,124.8,534.7,126.6,532.5,126.6L532.5,126.6z M542,117.2c-2.2,0-4-1.8-4-4s1.8-4,4-4
		s4,1.8,4,4C545.9,115.4,544.1,117.2,542,117.2L542,117.2z"/>
</g>
</svg>
