<?xml version="1.0" encoding="utf-8"?>
<!-- Generator: Adobe Illustrator 26.3.1, SVG Export Plug-In . SVG Version: 6.00 Build 0)  -->
<svg version="1.1" id="Layer_1" xmlns="http://www.w3.org/2000/svg" xmlns:xlink="http://www.w3.org/1999/xlink" x="0px" y="0px"
	 viewBox="0 0 1101.9 1101.9" style="enable-background:new 0 0 1101.9 1101.9;" xml:space="preserve">
<style type="text/css">
	.st0{fill:#CE1E47;}
	.st1{fill:#CFCFCE;}
	.st2{fill:#E5E5E5;}
	.st3{fill:#FFFFFF;}
</style>
<rect x="0.2" y="0" class="st0" width="1101.9" height="1101.9"/>
<g id="Layer_1_00000157285651872855223110000006023407112673722245_">
</g>
<g id="Layer_6">
</g>
<g id="Layer_3">
</g>
<g id="Layer_7">
</g>
<g id="Layer_8">
	<g>
		<path class="st1" d="M174.4,269.6L174.4,269.6c-1.6,0.3-3-0.8-3.3-2.4l-2.8-17c-0.3-1.6,0.8-3,2.4-3.3l0,0c1.6-0.3,3,0.8,3.3,2.4
			l2.8,17C177.1,267.9,176,269.4,174.4,269.6z"/>
		<g>
			<path class="st2" d="M308.7,289.7c-1.7-5-4.2-9.3-7.8-13c-3.5-3.7-8-6.6-13.4-8.7s-11.8-3.2-19.2-3.2c-10.5,0-20.9,2.2-31.1,6.7
				c-10.2,4.5-20,10.5-29.5,18s-18.6,16.2-27.4,25.9c-8.8,9.7-16.9,19.9-24.4,30.5s-14.2,21.3-20.3,32s-11.2,20.7-15.5,30
				s-7.6,17.5-10,24.8c-2.4,7.2-3.5,12.6-3.5,16.3c0,4,1,7.4,2.9,10s5.1,3.9,9.5,3.9c6,0,11.9-3.3,17.6-9.9s11.3-15.2,16.6-25.8
				c5.3-10.6,10-22.5,14.3-35.8s8-26.6,11.2-40.2c-4,5.1-8.4,11.4-13.2,18.8c-4.7,7.5-9.4,15.5-14.1,24s-9.1,17.4-13.3,26.7
				c-4.2,9.3-7.7,18.3-10.5,27.1c-0.5,1.4-1.5,1.9-2.9,1.6s-1.8-1.3-1.3-2.9c3-9.5,7.2-20.1,12.6-31.8s11.8-23.7,19.1-35.9
				c7.3-12.2,15.3-24.1,24.1-35.7s18-21.9,27.6-30.8c9.7-9,19.6-16.2,29.9-21.7c10.3-5.5,20.4-8.3,30.4-8.3c8.8,0,15.1,2.4,19.1,7.1
				s5.9,10.7,5.9,17.9c0,6.3-1.5,13.2-4.5,20.5c-3,7.4-7.2,14.4-12.6,21.1s-12,12.5-19.8,17.6c-7.7,5.1-16.4,8.6-26.1,10.5
				c2.3,5.1,3,10.4,2.1,16.1c12.5-2.3,23.6-6.5,33.6-12.8c9.9-6.2,18.3-13.5,25.1-21.7c6.9-8.2,12.1-17,15.7-26.3s5.4-18.2,5.4-26.6
				C311.2,300.1,310.3,294.7,308.7,289.7z M187,280.5c-0.3-2.5-0.6-5-0.9-7.5c-0.5-3.2-1.8-5.5-3.7-7c-1.6-1.2-3.2-1.9-5-2.1
				c-0.4-0.1-0.9-0.1-1.3-0.1c-1.6,0-3,0.3-4.4,1c-1.1,0.5-2.1,1.2-3,2.2c-2.1,2.1-3,5.1-2.6,9c0.4,3.2,0.6,6.4,0.7,9.6
				c0.1,3.2,0.1,6.5,0.1,9.9c0,10.7-1.2,22.2-3.7,34.5c7.4-9.5,15.2-18.3,23.4-26.6c0.5-5.4,0.8-10.5,0.8-15.3
				C187.4,285.6,187.3,283.1,187,280.5z"/>
			<path class="st2" d="M278,436.1c0,1,0.1,1.9,0.3,2.8l-3.2,3.2c-10.2,10.2-19.7,17.5-28.6,21.9c-8.9,4.4-16.7,6.6-23.6,6.6
				c-7.9,0-14.1-2.5-18.7-7.4c-4.6-4.9-6.8-11.3-6.8-19.2c0-4.7,0.7-9.6,2.1-14.6c1.4-5,2.9-9.9,4.6-14.6c1.7-4.7,3.2-9.2,4.6-13.4
				c1.4-4.2,2.1-8.1,2.1-11.6c0-5.3-2.4-9-7.1-11.3c-1.2-0.5-2.1-0.3-2.6,0.8c-0.5,1-0.2,1.9,1,2.6s2.3,1.7,3.3,2.9
				c1,1.2,1.4,3,1.4,5.3c0,0.9-0.2,2.2-0.5,4c-4.6-0.9-8.5-2.8-11.7-5.9s-4.9-7.2-4.9-12.2c0-3.9,1.3-7.1,3.8-9.7s5.8-3.9,9.9-3.9
				c3.2,0,6.2,0.8,9.1,2.2c2.9,1.5,5.4,3.5,7.6,5.9c2.2,2.5,4,5.4,5.4,8.8s2.1,7,2.1,10.7c0,4.2-0.6,8.6-1.7,13
				c-1.2,4.5-2.5,8.9-4,13.3s-2.8,8.7-4,12.9c-1.1,4.2-1.7,8.2-1.7,11.8c0,4.6,0.9,7.9,2.8,10c1.9,2.1,4.4,3.2,7.5,3.2
				c4.7,0,10.4-2,17.1-6.1c6.7-4,13.5-9.6,20.5-16.6l0,0l0.1-0.1c3-3,5.7-5.5,8.2-7.8s5.3-4.6,8.3-7.1c-1.9,5.8-2.9,11.4-2.9,16.8
				v2.8H278z"/>
			<path class="st2" d="M461.6,306.6c-1.7-2.5-4.5-3.8-8.5-3.8c-3.9,0-8.1,2.2-12.6,6.6c-4.6,4.4-9.2,10.2-13.8,17.4
				c-4.6,7.2-9.2,15.4-13.7,24.5s-8.4,18.5-11.8,28.2c-1.1,3-2.1,6-3,9c-6.8-0.5-14.7-1.6-23.4-3.8c-9.8-2.4-18.2-5.6-25.2-8.8l0,0
				c-1.4-0.6-2.7-1.2-3.9-1.9c-2.3-0.8-4.9-1.2-7.8-1.2c-7.4,0-14.4,1.9-21.1,5.7c-6.7,3.8-12.6,8.6-17.8,14.4
				c-5.2,5.8-9.3,12.2-12.4,19.3c-3.1,7.1-4.6,14.1-4.6,20.9c0,8.2,2.2,15,6.7,20.3s11.5,7.9,21.2,7.9c3.3,0,6.9-0.5,10.5-1.5
				c3.7-1,7.1-2.4,10.3-4.3c4.5-2.9,18-12.2,25-30.6c4.7-12.3,4.5-23.6,3.5-31c4.4,1.9,9.4,3.5,15,4.7c7.7,1.6,14.7,2,20.4,1.7
				c-0.6,2.5-1.2,4.9-1.8,7.3c-2.1,9.2-3.2,17.4-3.2,24.6c0,9,1.8,15.8,5.3,20.7c3.5,4.8,8.9,7.2,16.3,7.2c1.6,0,3.4-0.2,5.5-0.7
				c2.1-0.4,4.5-1.3,7.1-2.6c2.6-1.3,5.5-3.2,8.7-5.5c3.2-2.4,6.7-5.5,10.5-9.4l5.3-5.3c-0.4-4.2-0.2-8.6,0.4-13.2s1.5-9.3,2.5-14.2
				c-3.5,4.6-7,8.8-10.4,12.6c-3.4,3.9-6.3,6.9-8.5,9.2c-8.1,8.1-14.3,12.1-18.7,12.1c-1.9,0-3.7-0.7-5.3-2.1
				c-1.6-1.4-2.4-4.9-2.4-10.5c0-7.9,1.5-16.9,4.6-27s6.8-20.1,11.1-30.2c4.3-10,8.9-19.4,13.8-28.2c4.9-8.8,9.2-15.9,12.9-21.3
				c1.2-1.8,2.4-2.2,3.4-1.5c1,0.8,1.1,1.9,0.3,3.3c-8.2,13.3-15.8,27.1-22.8,41.2c-6.9,14.1-12.5,29-16.7,44.6
				c5.8-7.7,11.7-16.1,17.6-25c6-9,11.4-17.7,16.2-26.3c4.8-8.6,8.9-16.6,12.1-24.1s5-13.6,5.1-18.3
				C464,312.9,463.3,309.1,461.6,306.6z M333.7,430.3c-4,5.6-8.5,9.5-12.2,12c-1.8,1.1-3.5,1.8-5.4,2.2c-1.8,0.4-3.4,0.7-4.6,0.7
				c-3.9,0-6.8-1.1-8.7-3.3c-1.9-2.2-2.9-5.3-2.9-9.3c0-4.9,1.1-10,3.4-15.1c2.3-5.2,5.2-9.9,8.7-14.1s7.4-7.7,11.7-10.4
				c4.3-2.7,8.5-4.1,12.5-4.1c2.6,0,4.5,0.9,5.5,2.6C342.5,396.5,344.9,414.4,333.7,430.3z"/>
			<path class="st3" d="M349.5,375.8c-1.4-0.6-2.7-1.2-3.9-1.9C347,374.4,348.3,375,349.5,375.8z"/>
			<path class="st2" d="M528.9,389.4c-2.3,6.8-4.2,12.6-5.8,17.4s-2.9,8.7-4.1,12c-1.1,3.2-2.1,6-2.9,8.3c-0.8,2.3-1.5,4.4-2.2,6.3
				c-1.2,1.4-2.5,2.8-3.8,4.2c-1.3,1.4-2.8,2.9-4.3,4.5c-3.9,3.9-7.4,7-10.5,9.3c-3.2,2.4-6.1,4.2-8.7,5.5s-5,2.2-7.1,2.6
				s-3.9,0.7-5.5,0.7c-7.4,0-12.8-2.4-16.3-7.2s-5.3-11.7-5.3-20.7c0-7.2,1-15.4,3.2-24.6c2.1-9.2,4.9-18.6,8.3-28.3
				c3.4-9.6,7.4-19,11.8-28.2c4.5-9.1,9-17.3,13.7-24.5s9.3-13,13.8-17.4c4.6-4.4,8.8-6.6,12.6-6.6c4,0,6.9,1.3,8.6,3.8
				c1.7,2.5,2.3,6.4,2,11.5c-0.2,4.7-1.9,10.8-5.1,18.3s-7.3,15.5-12.1,24.1c-4.8,8.6-10.2,17.4-16.2,26.3c-6,9-11.8,17.3-17.6,25
				c4.2-15.6,9.8-30.5,16.7-44.6c6.9-14.1,14.5-27.9,22.8-41.2c0.9-1.4,0.8-2.5-0.3-3.3s-2.2-0.3-3.4,1.5c-3.7,5.4-8,12.5-12.9,21.3
				s-9.5,18.2-13.8,28.2s-8,20-11,30.2c-3.1,10.1-4.6,19.1-4.6,27c0,5.6,0.8,9.1,2.4,10.5s3.3,2.1,5.3,2.1c4.4,0,10.6-4,18.6-12
				c0,0,0-0.1,0.1-0.1c4.9-4.9,10.3-11,16.1-18.3C516.8,405.7,522.7,397.8,528.9,389.4z"/>
			<path class="st2" d="M607.9,425.8c-1,4.1-1.5,8.6-1.3,13.3l-2.9,2.9c-6.1,6.1-11.6,10.7-16.5,13.7c-4.8,3-10.6,4.5-17.2,4.5
				c-4.9,0-8.9-1.6-12.1-4.7c-3.2-3.2-4.7-7.8-4.7-14c0-4.2,1.1-8.6,3.4-13.2c2.3-4.6,4.7-8.9,7.4-13c2.6-4.1,5.1-7.8,7.4-11.1
				c2.3-3.2,3.4-5.6,3.4-7c0-1.2-0.5-1.9-1.6-1.9c-1.4,0-4.2,2.2-8.3,6.6s-8.5,9.6-13.2,15.7s-9.1,12.3-13.3,18.7
				c-4.2,6.4-7.2,11.6-9,15.7c-0.9,2.6-2.2,4.6-4.1,5.8c-1.8,1.2-3.7,1.8-5.7,1.8c-2.6,0-4.6-0.8-5.8-2.4s-1.8-3.3-1.8-5.3
				c0-1.2,0.3-2.6,0.8-4c3.9-10.5,7.8-21.7,11.9-33.6c4-11.8,8.1-23.4,12.1-34.8s8.2-22,12.4-32.1s8.6-18.7,13.2-25.9
				c3.9-6.1,8.1-10.7,12.6-13.6c4.6-2.9,8.8-4.3,12.6-4.3c3.5,0,6.5,1.1,8.8,3.4c2.4,2.3,3.6,5.6,3.6,10c0,5.3-1.5,10.6-4.3,16.1
				c-2.9,5.4-6.5,10.9-10.8,16.3c-4.3,5.5-9,10.9-14,16.3s-9.6,10.8-13.8,16.1c2.3-5.8,4.7-11.4,7.2-16.8s5-10.6,7.4-15.5
				s4.7-9.4,6.8-13.4c2.2-4,4.2-7.5,5.9-10.3c0.9-1.4,0.8-2.5-0.3-3.3s-2.2-0.3-3.4,1.5c-7.4,11.2-13.5,22.9-18.4,35
				s-9.3,23.7-13.2,34.8c-1.6,1.4-3.2,3.2-4.9,5.3c-1.7,2.1-3.2,4.2-4.6,6.3c-0.9,1.2-0.8,2.2,0.3,3c1,0.8,2,0.6,2.9-0.7
				c3.2-4.4,6.6-8.7,10.3-13s7.5-8.2,11.3-11.6s7.7-6.1,11.5-8.2c3.8-2,7.4-3,10.9-3c3,0,5.6,0.8,7.8,2.5s3.3,4.2,3.3,7.5
				c0,5.1-1.4,10.4-4.2,15.9s-5.9,10.9-9.3,16.2c-3.4,5.3-6.5,10.1-9.3,14.6s-4.2,8.2-4.2,11.2c0,2.6,1.5,3.9,4.5,3.9
				c1.8,0,4.2-1.2,7.4-3.5c3.2-2.4,6.6-5.4,10.3-9.1c3.5-3.5,6.7-6.5,9.6-9.1c2.9-2.5,6.2-5.3,9.9-8.3
				C610.4,417.7,608.9,421.7,607.9,425.8z"/>
			<path class="st2" d="M751.4,437.6c-5.8,4.2-11.5,6.3-17.1,6.3c-2.1,0-3.2-1.2-3.2-3.7c-0.2-2.3,0.4-5.2,1.8-8.7
				c1.4-3.5,3.2-7.5,5.5-12.1s4.9-9.6,7.8-15.3c2.9-5.6,5.9-11.6,9.1-17.9c0.7-1.4,1.1-3.1,1.1-5c0-2.5-0.8-4.6-2.2-6.5
				c-1.5-1.8-3.8-2.8-7-2.8c-1.8,0-3.5,0.5-5.3,1.6s-3.3,3-4.7,5.8c-1.9,4-4.5,8.3-7.6,12.6c-3.2,4.4-6.6,8.9-10.4,13.4
				c-3.8,4.6-7.7,9-11.7,13.4s-8,8.5-11.9,12.4c-2.8,2.8-5.1,5-6.8,6.6c-1.8,1.6-3.2,2.8-4.4,3.7c-1.1,0.9-2.1,1.4-2.8,1.7
				c-0.7,0.3-1.4,0.4-2.1,0.4c-1.8,0-2.6-1-2.6-2.9c0-1.8,0.7-4.1,2.2-7s3.4-6.3,5.8-10.1c2.4-3.9,5.1-8.3,8.3-13.3s6.3-10.7,9.5-17
				c0.9-1.8,1.3-3.6,1.3-5.5c0.1-1.4,0-3.5-0.9-5.8c-3.5-9-16.2-11-20.6-11.8c-10.3-1.7-23.5,3.2-23.5,3.2c-3.8,1-7.8,2.7-11.8,5.1
				c-6.6,4-12.6,9.2-18,15.4c-5.5,6.2-9.9,13.2-13.4,20.8c-3.5,7.6-5.3,15-5.3,22.2c0,7.9,2,13.7,6.1,17.5c4,3.8,8.7,5.7,14,5.7
				c4.9,0,9.4-0.9,13.4-2.8c4-1.8,7.9-4.2,11.6-7.2c-0.4-1.1-0.6-2.3-0.8-3.8s-0.1-3,0.3-4.6c0.3-1.6,1.1-2.3,2.4-2.2
				c1.2,0.1,1.8,0.9,1.6,2.5c-0.4,6.2,0.9,10.7,3.7,13.7s6.7,4.5,11.6,4.5c5.8,0,11-1.4,15.5-4.2c4.6-2.8,10.1-7.5,16.6-14l3.2-3.2
				c1-4.7,2.3-8.9,3.7-12.4s2.7-6.3,4-8.4c0.9-1.4,1.8-1.8,2.9-1.3c1,0.5,1.2,1.5,0.5,2.9c-1.9,4-3.6,8-5.1,11.9s-2.2,7.8-2.2,11.8
				c0,6.1,1.8,10.5,5.5,13s7.6,3.8,11.8,3.8c9.5,0,19-3,28.4-8.9C755.3,447.7,752.8,443.2,751.4,437.6z M663.8,419.9
				c-4.5,6.3-9.3,11.8-14.6,16.5c-5.3,4.6-10.6,7-16.1,7c-2.5,0-4.1-0.8-5-2.4s-1.3-3.4-1.3-5.5c0-4.7,0.9-9.6,2.6-14.5
				c1.8-4.9,4.1-9.6,7.1-14s6.4-8.4,10.1-12c3-2.9,6.1-5.3,9.4-7.2l0,0c0.8-0.5,1.5-0.9,2.3-1.3c0.2-0.1,0.3-0.2,0.5-0.2
				c0.8-0.5,1.6-0.9,2.3-1.2c8.6-4.1,16.7-1.6,18.8,2.8c0.7,1.4,0.8,3.2,0.3,5C679.8,395.5,668.3,413.6,663.8,419.9z"/>
			<path class="st2" d="M658.9,386.3c0.8-0.5,1.6-0.9,2.3-1.2L658.9,386.3z"/>
			<path class="st2" d="M984.3,436.5c0,2.3-0.7,4.1-2.1,5.5c-6.2,6.1-11.6,10.7-16.5,13.7c-4.8,3-10.6,4.5-17.2,4.5
				c-4.9,0-9-1.6-12.1-4.7c-3.2-3.2-4.7-7.8-4.7-14c0-4.4,1.1-8.9,3.4-13.4c2.3-4.6,4.7-8.9,7.4-12.9c2.6-4,5.1-7.6,7.4-10.8
				c2.3-3.2,3.4-5.5,3.4-7.1c0-1.2-0.5-1.9-1.6-1.9c-1.2,0-2.7,0.9-4.5,2.6c-2.3,2.3-5.2,5.4-8.7,9.5c-3.5,4-7.2,8.5-10.9,13.4
				c-3.8,4.9-7.4,10-10.9,15.4s-6.4,10.6-8.7,15.7c-0.9,2.6-2.2,4.6-4.1,5.8c-1.8,1.2-3.7,1.8-5.7,1.8c-2.6,0-4.6-0.8-5.8-2.4
				s-1.8-3.3-1.8-5.3c0-1.2,0.3-2.6,0.8-4c0.5-1.6,1-3,1.6-4.4c0.5-1.3,1.2-2.9,2-4.9c0.8-1.9,1.8-4.2,2.9-7
				c1.1-2.7,2.5-6.3,4.1-10.7c0.5-1.4,0.1-2.4-1.2-2.9s-2.3,0.1-3,1.8c-0.5,1.4-1.3,3.4-2.2,5.9c-1,2.5-2,5.1-3,7.8
				c-0.9,0.9-1.8,2-2.9,3.3c-1.1,1.3-2.6,2.9-4.5,4.9c-6.8,6.8-14.1,11.8-21.8,14.9s-15.4,4.6-22.9,4.6c-9.5,0-16.7-2.1-21.7-6.3
				c-5-4.2-7.5-10.3-7.5-18.2c0-2.3,0.1-4.2,0.4-5.9c0.3-1.7,0.6-3.3,0.9-4.9c0.3-1.8-0.1-2.8-1.3-3c-1.2-0.3-2.1,0.4-2.6,2
				c-0.5,1.9-0.9,4.2-1.2,6.7s-0.4,5-0.4,7.5l-2.6,2.6c-3.3,3.3-7.4,6.1-12.2,8.2s-9.7,3.2-14.6,3.2c-7.9,0-13.7-2.4-17.5-7.1
				s-5.7-11-5.7-18.9c0-6.7,1.1-13.3,3.3-19.9s5-12.5,8.4-17.8s7.2-9.5,11.3-12.8c4.1-3.2,8.2-4.9,12.2-4.9c3.3,0,6,1.2,8,3.6
				s3,5.7,3,9.9c0,7.9-2,16.1-6.1,24.6c-4,8.5-9.1,16.5-15.3,23.8c-3.2,0-4.7-2.8-4.7-8.4c0-5.1,1.1-10.1,3.2-15.1
				c2.1-5,4.6-9.6,7.6-13.8c0.9-1.4,0.8-2.5-0.3-3.3c-1-0.8-2.1-0.5-3.2,0.9c-1.6,2.1-3.1,4.5-4.5,7.2s-2.6,5.5-3.7,8.4
				c-1,2.9-1.9,5.8-2.5,8.6s-0.9,5.2-0.9,7.1c0,4,0.8,7.1,2.5,9.2s3.8,3.2,6.5,3.2c2.3,0,4.6-0.5,7-1.5s4.8-2.7,7.2-5.1
				c3.2-3.2,6.5-6.7,10.1-10.5s7.3-7.9,11.1-12s7.5-8.1,11.3-12s7.4-7.3,10.9-10.3c4.7-4,9.7-7.4,14.9-10s10.2-4,15.1-4
				c9.6,0,14.5,4.7,14.5,14.2c0,4.7-1.2,9.4-3.7,14.1s-5.9,8.9-10.3,12.6c-4.4,3.8-9.6,6.8-15.7,9.2c-6,2.4-12.7,3.7-19.9,3.8
				c0.7-2.5,1.7-4.9,2.9-7.4s2.5-4.8,4-7.1c3.9-0.5,7.4-1.7,10.5-3.4c3.2-1.8,5.9-3.7,8.3-5.8c2.4-2.1,4.2-4.2,5.5-6.3
				c1.3-2.1,2-3.7,2-4.7c0-1.8-1.1-2.6-3.2-2.6c-3.5,0-7.3,1.5-11.5,4.6c-4.1,3.1-7.9,6.9-11.5,11.5c-3.5,4.6-6.4,9.4-8.8,14.5
				c-2.4,5.1-3.6,9.7-3.6,14c0,3.7,1.1,6.7,3.2,9.1c2.1,2.4,5.6,3.5,10.5,3.5c5.6,0,11.3-1.1,17-3.3c5.7-2.2,11.4-6.1,17-11.7
				c3.9-4,7.8-8.2,11.7-12.6s7.6-8.8,11.1-13.3c3.4-4.5,6.5-8.9,9.3-13.3s5.2-8.5,7.1-12.4c1.4-3,3-5,4.7-6.1c1.8-1,3.6-1.6,5.5-1.6
				c2.5,0,4.6,0.8,6.3,2.2c1.8,1.5,2.6,3.7,2.6,6.7c0,2.5-0.6,5.2-1.8,8.2c-2.3,2.5-4.6,5.2-7,8.3s-4,5.2-4.9,6.4
				c-0.9,1.4-0.8,2.5,0.3,3.3c1,0.8,2.1,0.5,3.2-0.9c3-4,6.3-8.1,9.9-12.2c3.6-4.1,7.2-7.8,10.9-11.1c3.7-3.2,7.4-5.9,11.2-7.9
				s7.4-3,10.9-3c3,0,5.6,0.8,7.8,2.5s3.3,4.2,3.3,7.5c0,5.1-1.4,10.4-4.2,15.9s-5.9,10.9-9.3,16.2c-3.4,5.3-6.5,10.1-9.3,14.6
				s-4.2,8.2-4.2,11.2c0,2.6,1.5,3.9,4.5,3.9c1.8,0,4.2-1.2,7.4-3.5c3.2-2.4,6.6-5.4,10.3-9.1c1.4-1.4,3.2-2.1,5.5-2.1
				c1.9,0,3.6,0.8,5.1,2.2C983.6,432.9,984.3,434.6,984.3,436.5z"/>
		</g>
		<path class="st1" d="M977.4,435.1L977.4,435.1c-1.1-1.2-1-3,0.2-4.1l12.8-11.5c1.2-1.1,3-1,4.1,0.2l0,0c1.1,1.2,1,3-0.2,4.1
			l-12.8,11.5C980.3,436.4,978.5,436.3,977.4,435.1z"/>
		<path class="st2" d="M875.8,336.4c-14,0.1-28.2,0.2-42.5,0.1c-9.5,0-18.9-0.1-28.2-0.2c-0.4-3.1-0.8-7.7-0.5-13.2
			c0.1-2.2,0.4-4.2,0.7-6.2c0.2-1.4,0.7-2.6,1.4-3.8h38.1c0.7,0.6,1.3,1.2,2,1.7c9.5,7.3,23.2,6.1,27.7,16
			C875.6,333,875.8,335.1,875.8,336.4z"/>
		<rect x="805.1" y="337.3" class="st2" width="70.7" height="3.2"/>
		<g>
			<path class="st2" d="M815.5,347.4c2.5,0,4.5,2,4.5,4.5s-2,4.5-4.5,4.5s-4.5-2-4.5-4.5S813,347.4,815.5,347.4 M815.5,341.4
				c-5.8,0-10.5,4.7-10.5,10.5s4.7,10.5,10.5,10.5s10.5-4.7,10.5-10.5S821.3,341.4,815.5,341.4L815.5,341.4z"/>
		</g>
		<g>
			<path class="st2" d="M866.2,347.4c2.5,0,4.5,2,4.5,4.5s-2,4.5-4.5,4.5s-4.5-2-4.5-4.5S863.7,347.4,866.2,347.4 M866.2,341.4
				c-5.8,0-10.5,4.7-10.5,10.5s4.7,10.5,10.5,10.5s10.5-4.7,10.5-10.5S872,341.4,866.2,341.4L866.2,341.4z"/>
		</g>
		<g>
			<path class="st2" d="M815.5,350.1c-1,0-1.9,0.9-1.9,1.9s0.9,1.9,1.9,1.9s1.9-0.9,1.9-1.9S816.5,350.1,815.5,350.1L815.5,350.1z"
				/>
		</g>
		<g>
			<path class="st2" d="M865.8,350.1c-1,0-1.9,0.9-1.9,1.9s0.9,1.9,1.9,1.9s1.9-0.9,1.9-1.9S866.9,350.1,865.8,350.1L865.8,350.1z"
				/>
		</g>
		<rect x="907.1" y="338.6" class="st2" width="70.7" height="3.2"/>
		<g>
			<path class="st2" d="M917.5,348.7c2.5,0,4.5,2,4.5,4.5s-2,4.5-4.5,4.5s-4.5-2-4.5-4.5S915,348.7,917.5,348.7 M917.5,342.7
				c-5.8,0-10.5,4.7-10.5,10.5s4.7,10.5,10.5,10.5S928,359,928,353.2C928.1,347.4,923.3,342.7,917.5,342.7L917.5,342.7z"/>
		</g>
		<g>
			<path class="st2" d="M968.2,348.7c2.5,0,4.5,2,4.5,4.5s-2,4.5-4.5,4.5s-4.5-2-4.5-4.5S965.7,348.7,968.2,348.7 M968.2,342.7
				c-5.8,0-10.5,4.7-10.5,10.5s4.7,10.5,10.5,10.5s10.5-4.7,10.5-10.5C978.7,347.4,974,342.7,968.2,342.7L968.2,342.7z"/>
		</g>
		<g>
			<path class="st2" d="M917.5,351.4c-1,0-1.9,0.9-1.9,1.9s0.9,1.9,1.9,1.9s1.9-0.9,1.9-1.9S918.5,351.4,917.5,351.4L917.5,351.4z"
				/>
		</g>
		<g>
			<path class="st2" d="M967.8,351.4c-1,0-1.9,0.9-1.9,1.9s0.9,1.9,1.9,1.9s1.9-0.9,1.9-1.9S968.9,351.4,967.8,351.4L967.8,351.4z"
				/>
		</g>
		<path class="st2" d="M977.8,337.7c-14,0.1-28.2,0.2-42.5,0.1c-9.5,0-18.9-0.1-28.2-0.2c-0.4-3.1-0.8-7.7-0.5-13.2
			c0.1-2.2,0.4-4.2,0.7-6.2c0.3-1.9,1.1-3.7,2.3-5.1h36c1.1,1.2,2.2,2.2,3.2,3c9.5,7.3,23.2,6.1,27.7,16
			C977.6,334.3,977.8,336.4,977.8,337.7z"/>
	</g>
</g>
<g id="Layer_9">
	<g>
		<path class="st1" d="M366.9,553.5L366.9,553.5c-2.7,0.4-5.3-1.4-5.8-4.1l-4.9-29.7c-0.4-2.7,1.4-5.3,4.1-5.8l0,0
			c2.7-0.4,5.3,1.4,5.8,4.1l4.9,29.7C371.5,550.5,369.7,553.1,366.9,553.5z"/>
		<g>
			<path class="st2" d="M372.9,676.8c-4.7,20.2-10.3,40.3-16.8,60.1c-6.4,19.8-13.6,37.7-21.5,53.6c-7.9,15.9-16.2,28.8-24.8,38.6
				c-8.7,9.9-17.5,14.8-26.4,14.8c-6.6,0-11.3-2-14.2-5.9c-2.9-3.9-4.3-8.9-4.3-15c0-5.5,1.8-13.7,5.3-24.4
				c3.5-10.8,8.5-23.1,15-37.1c6.4-13.9,14.2-28.9,23.3-44.9c9.1-16,19.2-32,30.4-47.9c11.2-15.9,23.3-31.1,36.5-45.7
				c13.1-14.6,26.8-27.5,41-38.8s28.9-20.3,44.2-27c15.2-6.7,30.8-10.1,46.5-10.1c11,0,20.6,1.6,28.8,4.7c8.1,3.2,14.8,7.5,20.1,13
				s9.1,12,11.6,19.5s3.7,15.6,3.7,24.2c0,12.6-2.7,25.9-8.1,39.8c-5.4,13.9-13.2,27.1-23.5,39.4c-10.2,12.4-22.8,23.2-37.6,32.5
				c-14.9,9.3-31.6,15.7-50.3,19.1c1.3-8.4,0.3-16.4-3.2-24c14.5-2.9,27.5-8.1,39-15.8c11.6-7.6,21.4-16.4,29.6-26.4
				c8.1-10,14.5-20.5,18.9-31.5c4.5-11,6.7-21.3,6.7-30.8c0-10.8-3-19.7-8.9-26.8s-15.4-10.6-28.6-10.6c-15,0-30.2,4.1-45.5,12.4
				s-30.3,19.1-44.7,32.5c-14.5,13.4-28.3,28.8-41.4,46.1s-25.2,35.2-36.1,53.4c-10.9,18.3-20.4,36.2-28.6,53.8
				s-14.5,33.5-18.9,47.7c-0.8,2.4-0.1,3.8,2,4.3s3.5-0.3,4.3-2.4c4.2-13.1,9.5-26.7,15.8-40.6c6.3-13.9,12.9-27.3,19.9-40
				s14-24.7,21.1-35.9C360.3,693.8,366.9,684.4,372.9,676.8z M354,563.6c-0.5-5.8,0.8-10.2,3.9-13.4c3.2-3.2,6.8-4.7,11-4.7
				c3.4,0,6.6,1.1,9.5,3.4c2.9,2.2,4.7,5.7,5.5,10.4c0.5,3.7,1,7.4,1.4,11.2s0.6,7.6,0.6,11.2c0,7.1-0.4,14.7-1.2,22.9
				c-12.4,12.4-24,25.6-35.1,39.8c3.7-18.4,5.5-35.6,5.5-51.6c0-5-0.1-9.9-0.2-14.8C354.9,573.2,354.5,568.4,354,563.6z
				 M495.9,794.5c12.4-17.2,19.6-32.8,20.5-32.4c1.2,0.6-10.9,28.8-7.1,30.9c0.5,0.3,1.1-0.1,2.9,0.4s3.4,1.5,4.8,3
				c2.2,2.2,3.4,4.8,3.4,7.7c0,3.4-1.1,6.2-3.2,8.3c-15.2,15.2-29.5,26.1-42.8,32.7c-13.3,6.6-25,9.9-35.3,9.9
				c-11.8,0-21.2-3.7-28-11c-6.8-7.4-10.2-17-10.2-28.8c0-7.1,1-14.4,3.2-21.9c2.1-7.5,4.4-14.8,6.9-21.9c2.5-7.1,4.8-13.8,6.9-20.1
				s3.2-12.1,3.2-17.3c0-7.9-3.5-13.5-10.6-17c-1.8-0.8-3.2-0.4-3.9,1.2c-0.8,1.6-0.3,2.9,1.6,3.9c1.8,1.1,3.5,2.5,4.9,4.3
				s2.2,4.5,2.2,7.9c0,1.3-0.3,3.3-0.8,5.9c-6.8-1.3-12.7-4.3-17.5-8.9c-4.9-4.6-7.3-10.7-7.3-18.3c0-5.8,1.9-10.6,5.7-14.6
				c3.8-3.9,8.7-5.9,14.8-5.9c4.7,0,9.3,1.1,13.6,3.4c4.3,2.2,8.1,5.2,11.4,8.9s6,8.1,8.1,13.2c2.1,5.1,3.2,10.4,3.2,16
				c0,6.3-0.9,12.8-2.6,19.5s-3.7,13.3-5.9,19.9c-2.2,6.6-4.2,13-5.9,19.3c-1.7,6.3-2.6,12.2-2.6,17.7c0,6.8,1.4,11.8,4.1,15
				c2.8,3.2,6.5,4.7,11.2,4.7c12.5,0,25.6-9.1,25.6-9.1C477.7,815.9,485.7,808.6,495.9,794.5z"/>
			<path class="st2" d="M723.4,708.7c-9.7,2.1-21.1,4.2-34.1,6.3s-26.5,4.6-40.6,7.5s-28,6.3-41.8,10.2s-26.2,8.9-37.1,14.8
				c-10.9,5.9-19.7,13.1-26.4,21.5s-10.1,18.3-10.1,29.6c0,7.6,2.2,14.1,6.5,19.3c4.3,5.3,10.7,7.9,19.1,7.9
				c18.1,0,34.6-8.6,49.3-25.8s28.6-41.3,41.8-72.3c5-1,9.9-2,14.8-2.8c4.9-0.8,9.8-1.6,14.8-2.4c-7.6,19.2-15.8,36.7-24.4,52.6
				c-8.7,15.9-18,29.6-28,41s-20.9,20.3-32.7,26.6s-24.6,9.5-38.2,9.5c-8.4,0-15.8-1.3-22.3-3.9c-6.4-2.6-11.9-6.2-16.4-10.8
				s-7.8-10-10.1-16.2c-2.2-6.2-3.4-12.8-3.4-19.9c0-12.6,4.1-25.7,12.2-39.2c8.1-13.5,20.9-25,38.2-34.5
				c16.3-8.9,32.4-15.6,48.3-20.1c15.9-4.5,31.5-7.9,46.7-10.4s30.2-4.7,44.7-6.7s28.6-5.1,42-9.3L723.4,708.7z M654,556.9
				c-4.7,0-9.6,1.1-14.6,3.2c-5,2.1-9.7,5.2-14.2,9.3s-8.5,8.9-12.2,14.6c-3.7,5.7-6.4,12-8.3,19.1c-1.1,3.7-2.8,6.4-5.3,8.1
				c-2.5,1.7-5.2,2.6-8.1,2.6c-2.9,0-5.5-1-7.9-3s-3.5-5.1-3.5-9.3c0-5.5,1.8-12.2,5.3-19.9s8.7-15.2,15.4-22.3s14.6-13.1,23.9-18.1
				c9.2-5,19.6-7.5,31.1-7.5c7.1,0,13.8,1.2,20.1,3.5s11.9,6.1,16.8,11.2c4.9,5.1,8.7,11.6,11.6,19.3c2.9,7.8,4.3,16.9,4.3,27.4
				c0,13.9-1.6,28.8-4.9,44.5c-3.3,15.8-7.2,30.8-11.6,44.9c-4.5,0.5-9.1,1.1-13.8,1.8s-9.3,1.4-13.8,2.2c4.2-13.7,8.2-28.7,12-45.1
				c3.8-16.4,5.7-32.4,5.7-47.9c0-13.7-2.8-23.5-8.3-29.6C668.2,560,661.6,556.9,654,556.9z M775.1,796.2c2.1-2.1,4.9-3.2,8.3-3.2
				c2.9,0,5.5,1.1,7.7,3.4c2.2,2.2,3.4,4.8,3.4,7.7c0,3.4-1.1,6.2-3.2,8.3c-5.8,5.8-11.1,10.4-16,14c-4.9,3.5-9.5,6.3-13.8,8.3
				s-8.6,3.3-12.8,3.9c-4.2,0.7-8.5,1-13,1c-10,0-17.7-3.5-23.3-10.6c-5.5-7.1-8.3-16.3-8.3-27.6c0-10.5,2-23.1,5.9-37.8
				s9.1-30,15.6-45.7c6.4-15.8,13.7-31.5,21.9-47.1c8.1-15.6,16.6-29.6,25.2-42c8.7-12.4,17.2-22.3,25.6-30
				c8.4-7.6,15.9-11.4,22.5-11.4c4.7,0,8.6,1.5,11.6,4.5s4.5,7.4,4.5,13.2c0,7.9-2.3,16.2-6.9,24.8c-4.6,8.7-10.3,17-17.1,25
				s-14.1,15.3-21.9,21.9c-7.8,6.6-14.7,11.7-20.7,15.4c3.4-6.8,6.8-13.1,10.2-18.7c3.4-5.6,6.8-11.2,10.2-16.6
				c3.4-5.4,7-10.7,10.6-16c3.7-5.3,7.7-10.8,12.2-16.6c1.6-2.1,1.6-3.9,0.2-5.3c-1.4-1.4-3.1-1-4.9,1.4
				c-14.2,18.7-26.2,36.7-36.1,54c-9.9,17.3-17.9,33.6-24,48.9c-6.2,15.2-10.6,29-13.4,41.2c-2.8,12.2-4.1,22.3-4.1,30.2
				c0,7.6,1.1,12.9,3.4,15.8c2.2,2.9,5.2,4.3,8.9,4.3c4.7,0,10-1.9,15.8-5.7C765.1,805.2,770.3,801,775.1,796.2z"/>
		</g>
		<path class="st1" d="M785.1,801.8L785.1,801.8c-2-1.9-2.1-5.1-0.3-7.1l20.5-22.1c1.9-2,5.1-2.1,7.1-0.3l0,0c2,1.9,2.1,5.1,0.3,7.1
			l-20.5,22.1C790.3,803.5,787.1,803.6,785.1,801.8z"/>
	</g>
</g>
</svg>
